
<global>
ampeg_release=0.25
</global>

<group>
ampeg_release=0.035
group_label=Sustain

<region>
hikey=D#1
hivel=127
lokey=D1
lovel=0
offset=9233
pitch_keycenter=D1
sample=Precisionbass_SustainExtended_MP_D2.opus
volume=-12.01
</region>

<region>
hikey=B3
hivel=127
lokey=A#3
lovel=0
offset=654
pitch_keycenter=A#3
sample=Precisionbass_sustain_MP_A#3_RR1.opus
volume=-2.51
</region>

<region>
hikey=C#4
hivel=127
lokey=C4
lovel=0
offset=488
sample=Precisionbass_sustain_MP_C4_RR1.opus
volume=-2.48
</region>

<region>
hikey=D#4
hivel=127
lokey=D4
lovel=0
offset=834
pitch_keycenter=D4
sample=Precisionbass_sustain_MP_D4_RR1.opus
volume=-3.98
</region>

<region>
hikey=A3
hivel=127
lokey=G#3
lovel=0
offset=1222
pitch_keycenter=G#3
sample=Precisionbass_sustain_MP_G#3_RR1.opus
volume=-2.88
</region>

<region>
hikey=D#3
hivel=127
lokey=D3
lovel=0
offset=4798
pitch_keycenter=D3
sample=Precisionbass_sustain_MP_D3_RR1.opus
volume=-5.90
</region>

<region>
hikey=F3
hivel=127
lokey=E3
lovel=0
offset=2318
pitch_keycenter=E3
sample=Precisionbass_sustain_MP_E3_RR1.opus
volume=-3.45
</region>

<region>
hikey=G3
hivel=127
lokey=F#3
lovel=0
offset=4465
pitch_keycenter=F#3
sample=Precisionbass_sustain_MP_F#3_RR1.opus
volume=-2.35
</region>

<region>
hikey=B1
hivel=127
lokey=A#1
lovel=0
offset=5622
pitch_keycenter=A#1
sample=Precisionbass_sustain_MP_A#1_RR1.opus
volume=-4.61
</region>

<region>
hikey=B2
hivel=127
lokey=A#2
lovel=0
offset=7333
pitch_keycenter=A#2
sample=Precisionbass_sustain_MP_A#2_RR1.opus
volume=-1.14
</region>

<region>
hikey=C#2
hivel=127
lokey=C2
lovel=0
offset=6821
pitch_keycenter=C2
sample=Precisionbass_sustain_MP_C2_RR1.opus
volume=-4.57
</region>

<region>
hikey=C#3
hivel=127
lokey=C3
lovel=0
offset=8253
pitch_keycenter=C3
sample=Precisionbass_sustain_MP_C3_RR1.opus
volume=-4.00
</region>

<region>
hikey=D#2
hivel=127
lokey=D2
lovel=0
offset=8375
pitch_keycenter=D2
sample=Precisionbass_sustain_MP_D2_RR1.opus
volume=+0.56
</region>

<region>
end=659898
hikey=F2
hivel=127
lokey=E2
lovel=0
offset=8564
pitch_keycenter=E2
sample=Precisionbass_sustain_MP_E2_RR1.opus
volume=-3.48
</region>

<region>
end=557930
hikey=G2
hivel=127
lokey=F#2
lovel=0
offset=5028
pitch_keycenter=F#2
sample=Precisionbass_sustain_MP_F#2_RR1.opus
volume=-2.97
</region>

<region>
end=644635
hikey=A2
hivel=127
lokey=G#2
lovel=0
offset=9068
pitch_keycenter=G#2
sample=Precisionbass_sustain_MP_G#2_RR1.opus
volume=+0.37
</region>

<region>
hikey=G1
hivel=127
lokey=F#1
lovel=0
offset=7566
pitch_keycenter=F#1
sample=Precisionbass_sustain_MP_F#1_RR1.opus
volume=-6.70
</region>

<region>
hikey=F1
hivel=127
lokey=E1
lovel=1
offset=6771
pitch_keycenter=F1
sample=Precisionbass_sustain_MP_F1_RR1.opus
volume=-7.11
</region>

<region>
hikey=A1
hivel=127
lokey=G#1
lovel=0
offset=4638
pitch_keycenter=G#1
sample=Precisionbass_sustain_MP_G#1_RR1.opus
volume=-8.32
</region>
</group>

<group>
ampeg_attack=0.035
ampeg_release=2.5
group_label=Release
rt_decay=4
trigger=release

<region>
hikey=B1
hivel=127
lokey=A#1
lovel=0
offset=127122
pitch_keycenter=A#1
sample=Precisionbass_Doit_MP_A#2.opus
</region>

<region>
hikey=B2
hivel=127
lokey=A#2
lovel=0
offset=125657
pitch_keycenter=A#2
sample=Precisionbass_Doit_MP_A#3.opus
</region>

<region>
hikey=B3
hivel=127
lokey=A#3
lovel=0
offset=122168
pitch_keycenter=A#3
sample=Precisionbass_Doit_MP_A#4.opus
</region>

<region>
hikey=C#2
hivel=127
lokey=C2
lovel=0
offset=115035
pitch_keycenter=C2
sample=Precisionbass_Doit_MP_C3.opus
</region>

<region>
end=147565
hikey=C#3
hivel=127
lokey=C3
lovel=0
offset=100300
pitch_keycenter=C3
sample=Precisionbass_Doit_MP_C4.opus
</region>

<region>
end=139900
hikey=C#4
hivel=127
lokey=C4
lovel=0
offset=108359
sample=Precisionbass_Doit_MP_C5.opus
</region>

<region>
hikey=D#1
hivel=127
lokey=D1
lovel=0
offset=108336
pitch_keycenter=D1
sample=Precisionbass_Doit_MP_D2.opus
</region>

<region>
hikey=D#2
hivel=127
lokey=D2
lovel=0
offset=116604
pitch_keycenter=D2
sample=Precisionbass_Doit_MP_D3.opus
</region>

<region>
end=141653
hikey=D#3
hivel=127
lokey=D3
lovel=0
offset=92733
pitch_keycenter=D3
sample=Precisionbass_Doit_MP_D4.opus
</region>

<region>
hikey=D#4
hivel=127
lokey=D4
lovel=0
offset=97349
pitch_keycenter=D4
sample=Precisionbass_Doit_MP_D5.opus
</region>

<region>
hikey=F1
hivel=127
lokey=E1
lovel=0
offset=115045
pitch_keycenter=E1
sample=Precisionbass_Doit_MP_E2.opus
</region>

<region>
hikey=F2
hivel=127
lokey=E2
lovel=0
offset=98807
pitch_keycenter=E2
sample=Precisionbass_Doit_MP_E3.opus
</region>

<region>
end=159118
hikey=F3
hivel=127
lokey=E3
lovel=0
offset=122270
pitch_keycenter=E3
sample=Precisionbass_Doit_MP_E4.opus
</region>

<region>
hikey=G1
hivel=127
lokey=F#1
lovel=0
offset=112150
pitch_keycenter=F#1
sample=Precisionbass_Doit_MP_F#2.opus
</region>

<region>
end=152512
hikey=G2
hivel=127
lokey=F#2
lovel=0
offset=110214
pitch_keycenter=F#2
sample=Precisionbass_Doit_MP_F#3.opus
</region>

<region>
hikey=G3
hivel=127
lokey=F#3
lovel=0
offset=125045
pitch_keycenter=F#3
sample=Precisionbass_Doit_MP_F#4.opus
</region>

<region>
hikey=A1
hivel=127
lokey=G#1
lovel=0
offset=112395
pitch_keycenter=G#1
sample=Precisionbass_Doit_MP_G#2.opus
</region>

<region>
end=155231
hikey=A2
hivel=127
lokey=G#2
lovel=0
offset=105646
pitch_keycenter=G#2
sample=Precisionbass_Doit_MP_G#3.opus
</region>

<region>
end=150876
hikey=A3
hivel=127
lokey=G#3
lovel=0
offset=108868
pitch_keycenter=G#3
sample=Precisionbass_Doit_MP_G#4.opus
</region>
</group>